<?xml version="1.0" encoding="UTF-8" standalone="no"?>
<svg fill="#1199FF" width="18px" height="18px" viewBox="0 0 18 18" version="1.1" xmlns="http://www.w3.org/2000/svg"
     xmlns:xlink="http://www.w3.org/1999/xlink">
    <g transform="translate(-11.000000, -11.000000)">
        <path d="M12.4435714,18.2663197 C11.3984225,16.3723926 11,14.8455628 11,13.8142941 C11,12.7830254 11.2534953,12.4872449 11.5107235,12.2482935 C11.7679518,12.0093421 12.9278702,11.2945573 13.1255034,11.1612525 C13.3231365,11.0279476 14.0774307,10.7688841 14.55046,11.4490179 C15.0234893,12.1291517 15.91426,13.4947183 16.5283918,14.4018855 C17.4920831,15.6868167 16.7243322,16.2508803 16.4763439,16.5889627 C16.0200114,17.2110807 15.7572552,17.3645213 15.7572552,18.1284241 C15.7572552,18.8923268 17.8931749,21.0626018 18.4038984,21.5973337 C18.910737,22.127998 21.0389984,23.9928167 21.6984731,24.0925385 C22.3625872,24.1929619 23.2516483,23.4901969 23.4406749,23.3119908 C24.4022716,22.57408 24.9450742,23.1335242 25.3880045,23.3767025 C25.8309349,23.6198809 27.8321815,24.8663129 28.4523458,25.2864594 C29.0360299,25.7066059 28.9995496,26.3559232 28.9995496,26.3559232 C28.9995496,26.3559232 28.5843018,27.5675889 27.6497802,28.4948509 C27.4200081,28.7228382 27.0296159,28.9913877 26.0446491,28.9913877 C25.0596822,28.9913877 24.0072922,28.8115755 21.5062342,27.4367511 C19.4597727,26.311817 17.5089236,24.5502464 16.4874765,23.5189777 C15.4295491,22.487709 13.6374257,20.4297178 12.4435714,18.2663197 Z"></path>
    </g>
</svg>